<svg xmlns="http://www.w3.org/2000/svg" xmlns:xlink="http://www.w3.org/1999/xlink" viewBox="0 0 9.34 13.69"><defs><style>.cls-1{fill:url(#linear-gradient);}</style><linearGradient id="linear-gradient" x1="-36.86" y1="6.84" x2="41.18" y2="6.84" gradientUnits="userSpaceOnUse"><stop offset="0.02" stop-color="#c49c56"/><stop offset="0.11" stop-color="#b08849"/><stop offset="0.24" stop-color="#f6e3a0"/><stop offset="0.34" stop-color="#faf5d9"/><stop offset="0.48" stop-color="#c49c56"/><stop offset="0.63" stop-color="#915d38"/><stop offset="0.7" stop-color="#c49c56"/><stop offset="0.83" stop-color="#faf5d9"/><stop offset="1" stop-color="#c49c56"/></linearGradient></defs><g id="Layer_2" data-name="Layer 2"><g id="Layer_1-2" data-name="Layer 1"><path class="cls-1" d="M4.67,13.69l-.58-.95L1.6,8.61C1.22,8,.84,7.33.51,6.66a4.63,4.63,0,0,1-.51-2,4.68,4.68,0,0,1,9.26-.87A4.35,4.35,0,0,1,9.08,6,10.61,10.61,0,0,1,8,8.27L5.09,13Zm0-11.21A2.19,2.19,0,1,0,6.83,4.72,2.19,2.19,0,0,0,4.65,2.48Z"/></g></g></svg>