<svg xmlns="http://www.w3.org/2000/svg" width="59.996" height="32" viewBox="0 0 59.996 32">
  <path id="banner" d="M40.932,45.157A2.894,2.894,0,0,0,43,46H58a1.994,1.994,0,0,0,1.663-3.1l-2.6-3.9,2.586-3.888A1.993,1.993,0,0,0,58,32H52.454A22.761,22.761,0,0,0,53,27a20.163,20.163,0,0,0-3.144-11.24A3.973,3.973,0,0,0,46.538,14H13.462a3.973,3.973,0,0,0-3.316,1.76A20.163,20.163,0,0,0,7,27a22.761,22.761,0,0,0,.544,5H2A1.994,1.994,0,0,0,.34,35.1L2.932,39,.346,42.888A1.993,1.993,0,0,0,2,46H17a2.873,2.873,0,0,0,2.039-.815A2.992,2.992,0,0,0,20,43V40H40v3a2.964,2.964,0,0,0,.932,2.157ZM42,42.824V40h3.295ZM57.994,34l-2.96,4.45a1,1,0,0,0,0,1.108L58,44H43.7l4.947-4.24-.008-.01c.02-.017.046-.024.065-.043A15.441,15.441,0,0,0,51.9,34ZM2.006,44l2.96-4.45a1,1,0,0,0,0-1.108L2,34H8.1a15.43,15.43,0,0,0,3.2,5.707c.019.019.045.026.065.043l-.008.01L16.3,44Zm16-1.18L14.706,40H18ZM12.454,38A17.412,17.412,0,0,1,9,27a18.147,18.147,0,0,1,2.806-10.129A1.981,1.981,0,0,1,13.462,16H46.538a1.981,1.981,0,0,1,1.654.871A18.147,18.147,0,0,1,51,27a17.412,17.412,0,0,1-3.452,11Z" transform="translate(-0.002 -14)"/>
</svg>
