<svg xmlns="http://www.w3.org/2000/svg" width="23.909" height="26.836" viewBox="0 0 23.909 26.836">
  <g id="biz_name" transform="translate(-11.291 -2)">
    <path id="Path_3176" data-name="Path 3176" d="M35.141,2.25A.611.611,0,0,0,34.622,2H29.491a.649.649,0,0,0-.457.174l-5.79,5.8-5.79-5.8A.649.649,0,0,0,17,2H11.865a.609.609,0,0,0-.516.251.367.367,0,0,0,.062.47l5.78,5.8H15.258a1.475,1.475,0,0,0-1.619,1.252V27.584a1.475,1.475,0,0,0,1.619,1.252H31.231a1.475,1.475,0,0,0,1.619-1.252V9.771a1.474,1.474,0,0,0-1.616-1.252H29.3l5.78-5.8a.367.367,0,0,0,.061-.471Zm-22.1.644h3.673l5.609,5.622H18.651ZM31.7,9.771V27.584a.423.423,0,0,1-.462.358H15.258a.423.423,0,0,1-.462-.358V9.771a.423.423,0,0,1,.462-.358H31.231A.424.424,0,0,1,31.7,9.771ZM27.837,8.519H24.168l5.606-5.624h3.673Z" transform="translate(0 0)" fill="#ffc619"/>
    <path id="Path_3177" data-name="Path 3177" d="M30.518,26.12a2.332,2.332,0,0,0,1.168-2.958,3.47,3.47,0,0,0-3.244-1.8,3.47,3.47,0,0,0-3.244,1.8,2.332,2.332,0,0,0,1.168,2.958,4.037,4.037,0,0,0-3.008,3.592v.072a.466.466,0,0,0,.368.417,16.315,16.315,0,0,0,4.714.687h.132a16.288,16.288,0,0,0,4.585-.687.466.466,0,0,0,.368-.416v-.07A4.036,4.036,0,0,0,30.518,26.12Zm-4.344-2.1a2.063,2.063,0,0,1,2.269-1.758,2.063,2.063,0,0,1,2.269,1.758,2.063,2.063,0,0,1-2.269,1.758A2.065,2.065,0,0,1,26.173,24.016Zm2.388,5.976a14.672,14.672,0,0,1-4.036-.517c.161-1.584,1.867-2.806,3.917-2.806s3.756,1.222,3.917,2.806A14.91,14.91,0,0,1,28.562,29.992Z" transform="translate(-5.102 -10.7)" fill="#ffc619"/>
    <path id="Path_3178" data-name="Path 3178" d="M21.2,45.712v4.444a.525.525,0,0,0,.577.447H33.09a.525.525,0,0,0,.577-.447V45.712a.525.525,0,0,0-.577-.447H21.777A.525.525,0,0,0,21.2,45.712Zm1.154.447H32.513v3.549H22.354Z" transform="translate(-4.19 -23.914)" fill="#ffc619"/>
  </g>
</svg>
