<svg id="certificate" xmlns="http://www.w3.org/2000/svg" width="50.266" height="43.564" viewBox="0 0 50.266 43.564">
  <g id="_008---Certificate" data-name="008---Certificate">
    <path id="Shape" d="M46.077,0H4.189A4.194,4.194,0,0,0,0,4.189v30.16a4.194,4.194,0,0,0,4.189,4.189H29.322v4.189a.838.838,0,0,0,1.43.592l2.759-2.759,2.759,2.759a.838.838,0,0,0,1.43-.592V38.537h8.378a4.194,4.194,0,0,0,4.189-4.189V4.189A4.194,4.194,0,0,0,46.077,0ZM27.068,16.391a.446.446,0,0,1-.141-.707,2.129,2.129,0,0,0,0-2.883.446.446,0,0,1,.142-.708,2.131,2.131,0,0,0,1.1-2.664.446.446,0,0,1,.4-.6A2.13,2.13,0,0,0,30.611,6.79a.446.446,0,0,1,.6-.4,2.135,2.135,0,0,0,2.664-1.1.444.444,0,0,1,.706-.141,2.13,2.13,0,0,0,2.884,0,.445.445,0,0,1,.707.142,2.132,2.132,0,0,0,2.663,1.1.446.446,0,0,1,.6.4A2.132,2.132,0,0,0,43.48,8.83a.445.445,0,0,1,.4.6,2.13,2.13,0,0,0,1.1,2.664.446.446,0,0,1,.141.707,2.129,2.129,0,0,0,0,2.883.446.446,0,0,1-.142.708,2.131,2.131,0,0,0-1.1,2.664.446.446,0,0,1-.4.6A2.13,2.13,0,0,0,41.437,21.7a.446.446,0,0,1-.6.4,2.135,2.135,0,0,0-2.664,1.1.431.431,0,0,1-.316.251.439.439,0,0,1-.39-.11,2.13,2.13,0,0,0-2.884,0,.44.44,0,0,1-.39.11.432.432,0,0,1-.317-.251,2.131,2.131,0,0,0-2.663-1.1.446.446,0,0,1-.6-.4,2.132,2.132,0,0,0-2.043-2.045.445.445,0,0,1-.4-.6,2.13,2.13,0,0,0-1.1-2.664Zm9.2,15.689-.246.246V24.451a.443.443,0,0,1,.3.118,2.094,2.094,0,0,0,1.433.566,2.21,2.21,0,0,0,.424-.042A2.094,2.094,0,0,0,39.691,23.9a.447.447,0,0,1,.56-.231,2.119,2.119,0,0,0,.8.12v8.539l-1.921-1.921a.838.838,0,0,0-1.185,0ZM36.024,40.7,34.1,38.783a.838.838,0,0,0-1.185,0L31,40.7V23.786a2.116,2.116,0,0,0,.8-.12.446.446,0,0,1,.56.23,2.094,2.094,0,0,0,1.513,1.2,2.2,2.2,0,0,0,.483.041v9.215a.838.838,0,0,0,1.43.592l.245-.245Zm12.567-6.355a2.513,2.513,0,0,1-2.513,2.513H37.7V33.02l.838-.838L41.3,34.941a.838.838,0,0,0,1.43-.592V22.877a2.084,2.084,0,0,0,.385-1.12.448.448,0,0,1,.429-.428,2.121,2.121,0,0,0,1.908-2.856.447.447,0,0,1,.231-.559,2.121,2.121,0,0,0,.67-3.37.447.447,0,0,1,0-.606,2.12,2.12,0,0,0-.67-3.369.446.446,0,0,1-.232-.559,2.121,2.121,0,0,0-1.908-2.856.448.448,0,0,1-.429-.428,2.12,2.12,0,0,0-2.855-1.909.443.443,0,0,1-.56-.23,2.121,2.121,0,0,0-3.37-.67.447.447,0,0,1-.6,0,2.12,2.12,0,0,0-3.369.67.445.445,0,0,1-.56.231,2.12,2.12,0,0,0-2.855,1.909.448.448,0,0,1-.429.428A2.121,2.121,0,0,0,26.6,10.012a.447.447,0,0,1-.231.559,2.121,2.121,0,0,0-.67,3.37.447.447,0,0,1,0,.606,2.12,2.12,0,0,0,.67,3.369.446.446,0,0,1,.232.559,2.121,2.121,0,0,0,1.908,2.856.448.448,0,0,1,.429.428,2.084,2.084,0,0,0,.385,1.119V36.862H4.189a2.513,2.513,0,0,1-2.513-2.513V4.189A2.513,2.513,0,0,1,4.189,1.676H46.077a2.513,2.513,0,0,1,2.513,2.513Z"/>
    <path id="Shape-2" data-name="Shape" d="M10.189,31.458a2.513,2.513,0,0,1-2.513-2.513V12.189a2.513,2.513,0,0,1,2.513-2.513h15.08a.838.838,0,1,0,0-1.676H10.189A4.194,4.194,0,0,0,6,12.189V28.944a4.194,4.194,0,0,0,4.189,4.189H26.107a.838.838,0,0,0,0-1.676Z" transform="translate(-0.973 -1.298)"/>
    <path id="Shape-3" data-name="Shape" d="M11.838,23.676H23.567a.838.838,0,0,0,0-1.676H11.838a.838.838,0,1,0,0,1.676Z" transform="translate(-1.785 -3.569)"/>
    <path id="Shape-4" data-name="Shape" d="M11.838,19.676H23.567a.838.838,0,0,0,0-1.676H11.838a.838.838,0,1,0,0,1.676Z" transform="translate(-1.785 -2.92)"/>
    <path id="Shape-5" data-name="Shape" d="M11.838,15.676H23.567a.838.838,0,0,0,0-1.676H11.838a.838.838,0,0,0,0,1.676Z" transform="translate(-1.785 -2.271)"/>
    <path id="Shape-6" data-name="Shape" d="M11.069,32.524a.838.838,0,0,0,.768.5.824.824,0,0,0,.335-.07,6.44,6.44,0,0,0,2.1-1.281,3.938,3.938,0,0,0,.591-.754,4.464,4.464,0,0,0,1.113.9,2.27,2.27,0,0,0,1.966.251,1.886,1.886,0,0,0,.67-.444,3.83,3.83,0,0,0,1.234.5l.633.15a13.165,13.165,0,0,0,3.983.528.838.838,0,0,0-.121-1.671,11.567,11.567,0,0,1-3.472-.486l-.648-.153c-.782-.18-.983-.5-1.066-.717a.838.838,0,0,0-1.62.353.423.423,0,0,1-.187.378.772.772,0,0,1-.553-.142,3.435,3.435,0,0,1-1.441-1.823.838.838,0,0,0-1.622.342,2.167,2.167,0,0,1-.648,1.6,4.971,4.971,0,0,1-1.583.933.838.838,0,0,0-.433,1.1Z" transform="translate(-1.784 -4.543)"/>
    <path id="Shape-7" data-name="Shape" d="M41.7,22.4A6.7,6.7,0,1,0,35,15.7,6.7,6.7,0,0,0,41.7,22.4Zm0-11.729A5.027,5.027,0,1,1,36.676,15.7,5.027,5.027,0,0,1,41.7,10.676Z" transform="translate(-5.678 -1.46)"/>
  </g>
</svg>
