<svg xmlns="http://www.w3.org/2000/svg" xmlns:xlink="http://www.w3.org/1999/xlink" viewBox="0 0 12.49 13.72"><defs><style>.cls-1{fill:url(#linear-gradient);}</style><linearGradient id="linear-gradient" x1="-51.38" y1="6.86" x2="35.76" y2="6.86" gradientUnits="userSpaceOnUse"><stop offset="0.02" stop-color="#c49c56"/><stop offset="0.11" stop-color="#b08849"/><stop offset="0.24" stop-color="#f6e3a0"/><stop offset="0.34" stop-color="#faf5d9"/><stop offset="0.48" stop-color="#c49c56"/><stop offset="0.63" stop-color="#915d38"/><stop offset="0.7" stop-color="#c49c56"/><stop offset="0.83" stop-color="#faf5d9"/><stop offset="1" stop-color="#c49c56"/></linearGradient></defs><g id="Layer_2" data-name="Layer 2"><g id="Layer_1-2" data-name="Layer 1"><path class="cls-1" d="M12.11.36H9.87c0-.06,0-.11,0-.16s0-.19-.2-.19H2.6c-.25,0-.23,0-.24.24,0,0,0,.07,0,.12h-2A.34.34,0,0,0,0,.8,24.49,24.49,0,0,0,1,4.68a6.42,6.42,0,0,0,.74,1.54,2,2,0,0,0,1.34.9,7.48,7.48,0,0,1,.82.18.3.3,0,0,1,.17.1c.43.45.86.9,1.3,1.34a.54.54,0,0,1,.16.39c0,.71,0,1.42,0,2.13a.36.36,0,0,1,0,.15c-.15.25-.3.51-.46.76H2.52v1.55H9.81V12.17H7.46L7,11.67a.66.66,0,0,1-.17-.44c0-.73,0-1.45,0-2.18A.39.39,0,0,1,7,8.83q.62-.69,1.26-1.38a.47.47,0,0,1,.19-.12c.43-.1.87-.19,1.3-.3a1.34,1.34,0,0,0,.7-.4A4.78,4.78,0,0,0,11.4,5,23,23,0,0,0,12.49.79.34.34,0,0,0,12.11.36ZM2.29,5.84a5.35,5.35,0,0,1-.66-1.36A21.74,21.74,0,0,1,.75,1.13.25.25,0,0,1,.74,1H2.36A14.7,14.7,0,0,0,3.3,6.46,1.22,1.22,0,0,1,2.29,5.84Zm9.43-4.6a21.07,21.07,0,0,1-1,3.58,3.74,3.74,0,0,1-.82,1.35.71.71,0,0,1-.28.18c-.24.08-.48.14-.73.2a12.06,12.06,0,0,0,.74-3c.09-.54.16-1.07.22-1.61a8.22,8.22,0,0,0,0-.86h1.88Z"/></g></g></svg>