<svg xmlns="http://www.w3.org/2000/svg" width="25.017" height="24.961" viewBox="0 0 25.017 24.961">
  <g id="law" transform="translate(0 -0.134)">
    <g id="_036---Lawsuit-Copyright" data-name="036---Lawsuit-Copyright" transform="translate(0 0.134)">
      <path id="Shape" d="M40.835,2.351A25.662,25.662,0,0,1,34.975.206a.679.679,0,0,0-.619.006A25.656,25.656,0,0,1,28.5,2.352.67.67,0,0,0,28,3V5.419a.417.417,0,1,0,.834,0V3.128A26.646,26.646,0,0,0,34.671.989a26.7,26.7,0,0,0,5.837,2.139V7.2a8.459,8.459,0,0,1-2.77,6.485,6.28,6.28,0,0,1-3.049,1.408A6.25,6.25,0,0,1,31.6,13.68a6.9,6.9,0,0,1-1.52-1.8.417.417,0,1,0-.718.423,7.741,7.741,0,0,0,1.7,2.018,7.084,7.084,0,0,0,3.5,1.594.734.734,0,0,0,.1.009.814.814,0,0,0,.113-.008,7.074,7.074,0,0,0,3.492-1.593A9.31,9.31,0,0,0,41.343,7.2V3A.67.67,0,0,0,40.835,2.351Z" transform="translate(-16.325 -0.134)" fill="#ffc619"/>
      <path id="Shape-2" data-name="Shape" d="M39.743,12.834a.849.849,0,0,0,.947.145l.8-.386a.844.844,0,0,0,.459-.586.8.8,0,0,0-.181-.693,3.9,3.9,0,0,0-5.731-.12,3.675,3.675,0,0,0-1.024,2.736A3.813,3.813,0,0,0,38.671,17.5q.083,0,.167,0a3.863,3.863,0,0,0,3.085-1.517.8.8,0,0,0,.141-.675.834.834,0,0,0-.446-.56l-.776-.375a.847.847,0,0,0-1,.2,1.334,1.334,0,0,1-1.057.442,1.316,1.316,0,0,1-1.251-1.2,1.242,1.242,0,0,1,.357-.933,1.371,1.371,0,0,1,1.857-.05Zm-1,3.018a2.2,2.2,0,0,0,1.733-.728l.786.359a3.033,3.033,0,0,1-2.555,1.183,2.973,2.973,0,0,1-2.867-2.775,2.849,2.849,0,0,1,.795-2.121,3.073,3.073,0,0,1,4.489.073l-.808.385a2.171,2.171,0,0,0-3.025.072,2.07,2.07,0,0,0-.593,1.554,2.168,2.168,0,0,0,2.047,2Z" transform="translate(-20.409 -5.885)" fill="#ffc619"/>
      <path id="Shape-3" data-name="Shape" d="M11.435,19.256l-.718-1.676.956-.956a1.428,1.428,0,0,0,1.859-2.16L9.8,10.732a1.465,1.465,0,0,0-2.024,0,1.429,1.429,0,0,0-.136,1.858L2.457,17.773A1.468,1.468,0,0,0,.6,17.908a1.433,1.433,0,0,0,0,2.024l3.731,3.731a1.428,1.428,0,0,0,2.161-1.858l.956-.956,1.675.718,4.822,4.823a1.635,1.635,0,0,0,2.312-2.312Zm-2.942-.631L7.058,20.06,5.918,21.2,4.491,19.773,3.063,18.346l5.15-5.15,2.854,2.854Zm-.128-7.3a.6.6,0,0,1,.845,0l3.731,3.731a.6.6,0,0,1-.845.845L8.365,12.167A.6.6,0,0,1,8.365,11.322Zm-2.6,11.752a.612.612,0,0,1-.845,0L1.19,19.342a.6.6,0,1,1,.845-.845l.143.143L3.9,20.364l1.865,1.865A.6.6,0,0,1,5.766,23.074Zm3.316-3.859,1-1L10.59,19.4,9.266,20.721l-1.184-.507ZM15.668,25.8a.8.8,0,0,1-1.132,0L9.951,21.214l.566-.566.566-.566,4.584,4.587a.8.8,0,0,1,0,1.132Z" transform="translate(-0.106 -6.077)" fill="#ffc619"/>
      <path id="Shape-4" data-name="Shape" d="M10.841,49.085h-.075l-.217-1.08A1.256,1.256,0,0,0,9.323,47H2.769a1.256,1.256,0,0,0-1.226,1.006l-.216,1.079H1.251A1.251,1.251,0,0,0,0,50.336v.834A1.251,1.251,0,0,0,1.251,52.42h9.59a1.251,1.251,0,0,0,1.251-1.251v-.834a1.251,1.251,0,0,0-1.251-1.251Zm.417,2.085a.417.417,0,0,1-.417.417H1.251a.417.417,0,0,1-.417-.417v-.834a.417.417,0,0,1,.417-.417H3.336a.417.417,0,1,0,0-.834H2.177l.183-.914a.42.42,0,0,1,.409-.337H9.323a.42.42,0,0,1,.409.336l.183.914H5.42a.417.417,0,1,0,0,.834h5.42a.417.417,0,0,1,.417.417Z" transform="translate(0 -27.459)" fill="#ffc619"/>
    </g>
  </g>
</svg>
