<svg xmlns="http://www.w3.org/2000/svg" viewBox="0 0 91.65 15.41"><g id="Layer_2" data-name="Layer 2"><g id="Layer_1-2" data-name="Layer 1"><polygon points="8.1 0 10.36 5.41 16.2 5.88 11.75 9.7 13.11 15.41 8.1 12.36 3.09 15.41 4.45 9.7 0 5.88 5.84 5.41 8.1 0"/><polygon points="26.96 0 29.22 5.41 35.06 5.88 30.62 9.7 31.97 15.41 26.96 12.36 21.96 15.41 23.31 9.7 18.86 5.88 24.7 5.41 26.96 0"/><polygon points="45.83 0 48.08 5.41 53.92 5.88 49.48 9.7 50.83 15.41 45.83 12.36 40.82 15.41 42.17 9.7 37.72 5.88 43.57 5.41 45.83 0"/><polygon points="64.69 0 66.94 5.41 72.79 5.88 68.34 9.7 69.69 15.41 64.69 12.36 59.68 15.41 61.03 9.7 56.59 5.88 62.43 5.41 64.69 0"/><polygon points="83.55 0 85.81 5.41 91.65 5.88 87.2 9.7 88.56 15.41 83.55 12.36 78.54 15.41 79.9 9.7 75.45 5.88 81.29 5.41 83.55 0"/></g></g></svg>