<svg xmlns="http://www.w3.org/2000/svg" width="21.248" height="21.306" viewBox="0 0 21.248 21.306">
  <g id="transparent" transform="translate(1.306)">
    <g id="Group_2816" data-name="Group 2816" transform="translate(-1.306 0)">
      <path id="Path_3179" data-name="Path 3179" d="M6.737,147.308H1.526V133.173H4.912a.416.416,0,1,0,0-.832H1.11a.416.416,0,0,0-.416.416v14.967a.416.416,0,0,0,.416.416H6.737a.416.416,0,1,0,0-.832Z" transform="translate(-0.694 -126.834)" fill="#ffc619"/>
      <path id="Path_3180" data-name="Path 3180" d="M229.945,399.985a.416.416,0,0,0-.416.416v3.413h-5.221a.416.416,0,0,0,0,.832h5.637a.416.416,0,0,0,.416-.416V400.4A.416.416,0,0,0,229.945,399.985Z" transform="translate(-214.604 -383.34)" fill="#ffc619"/>
      <path id="Path_3181" data-name="Path 3181" d="M176.912,132.757a.416.416,0,0,0-.416-.416h-1.163a.416.416,0,1,0,0,.832H176.5A.416.416,0,0,0,176.912,132.757Z" transform="translate(-167.667 -126.834)" fill="#ffc619"/>
      <path id="Path_3182" data-name="Path 3182" d="M217.1.832h1.181a.416.416,0,0,0,0-.832H217.1a.416.416,0,0,0,0,.832Z" transform="translate(-207.695 0)" fill="#ffc619"/>
      <path id="Path_3183" data-name="Path 3183" d="M299.183.832h1.181a.416.416,0,1,0,0-.832h-1.181a.416.416,0,1,0,0,.832Z" transform="translate(-286.363 0)" fill="#ffc619"/>
      <path id="Path_3184" data-name="Path 3184" d="M381.267.832h1.181a.416.416,0,1,0,0-.832h-1.181a.416.416,0,1,0,0,.832Z" transform="translate(-365.031 0)" fill="#ffc619"/>
      <path id="Path_3185" data-name="Path 3185" d="M463.366.832h.75V1.6a.416.416,0,0,0,.832,0V.416A.416.416,0,0,0,464.532,0h-1.181a.416.416,0,0,0-.415.444.425.425,0,0,0,.429.388Z" transform="translate(-443.7 0)" fill="#ffc619"/>
      <path id="Path_3186" data-name="Path 3186" d="M492.137,86.147a.416.416,0,1,0-.832,0v1.181a.416.416,0,1,0,.832,0Z" transform="translate(-470.889 -82.163)" fill="#ffc619"/>
      <path id="Path_3187" data-name="Path 3187" d="M492.137,168.231a.416.416,0,1,0-.832,0v1.181a.416.416,0,1,0,.832,0Z" transform="translate(-470.889 -160.832)" fill="#ffc619"/>
      <path id="Path_3188" data-name="Path 3188" d="M491.721,249.9a.416.416,0,0,0-.416.416v1.181a.416.416,0,0,0,.832,0v-1.181A.416.416,0,0,0,491.721,249.9Z" transform="translate(-470.889 -239.499)" fill="#ffc619"/>
      <path id="Path_3189" data-name="Path 3189" d="M464.949,332.4a.416.416,0,0,0-.832,0v.764h-.764a.416.416,0,1,0,0,.832h1.181a.416.416,0,0,0,.416-.416V332.4Z" transform="translate(-443.701 -318.167)" fill="#ffc619"/>
      <path id="Path_3190" data-name="Path 3190" d="M382.449,360.353h-1.181a.416.416,0,1,0,0,.832h1.181a.416.416,0,1,0,0-.832Z" transform="translate(-365.032 -345.358)" fill="#ffc619"/>
      <path id="Path_3191" data-name="Path 3191" d="M298.768,360.769a.416.416,0,0,0,.416.416h1.181a.416.416,0,0,0,0-.832h-1.181A.416.416,0,0,0,298.768,360.769Z" transform="translate(-286.364 -345.358)" fill="#ffc619"/>
      <path id="Path_3192" data-name="Path 3192" d="M218.281,361.185a.416.416,0,0,0,0-.832H217.1a.416.416,0,1,0,0,.832Z" transform="translate(-207.696 -345.358)" fill="#ffc619"/>
      <path id="Path_3193" data-name="Path 3193" d="M136.611,333.551a.426.426,0,0,0-.429-.388h-.75V332.4a.416.416,0,1,0-.832,0v1.181a.416.416,0,0,0,.416.416H136.2A.416.416,0,0,0,136.611,333.551Z" transform="translate(-129.027 -318.167)" fill="#ffc619"/>
      <path id="Path_3194" data-name="Path 3194" d="M135.015,248.265a.416.416,0,0,0,.416-.416v-1.181a.416.416,0,1,0-.832,0v1.181A.416.416,0,0,0,135.015,248.265Z" transform="translate(-129.027 -236.005)" fill="#ffc619"/>
      <path id="Path_3195" data-name="Path 3195" d="M135.016,164.167a.416.416,0,0,0-.416.416v1.181a.416.416,0,0,0,.832,0v-1.181A.416.416,0,0,0,135.016,164.167Z" transform="translate(-129.028 -157.335)" fill="#ffc619"/>
      <path id="Path_3196" data-name="Path 3196" d="M135.432,82.5a.416.416,0,1,0-.832,0v1.181a.416.416,0,0,0,.832,0Z" transform="translate(-129.028 -78.668)" fill="#ffc619"/>
      <path id="Path_3197" data-name="Path 3197" d="M134.6,1.6a.416.416,0,1,0,.832,0V.832h.764a.416.416,0,0,0,0-.832h-1.181a.416.416,0,0,0-.416.416V1.6Z" transform="translate(-129.027 0)" fill="#ffc619"/>
      <path id="Path_3198" data-name="Path 3198" d="M254.666,132.757a.416.416,0,0,0,.416.416h1.163a.416.416,0,1,0,0-.832h-1.163A.416.416,0,0,0,254.666,132.757Z" transform="translate(-244.097 -126.834)" fill="#ffc619"/>
      <path id="Path_3199" data-name="Path 3199" d="M332.995,132.341h-1.163a.416.416,0,0,0,0,.832h.746v.746a.416.416,0,1,0,.832,0v-1.163A.416.416,0,0,0,332.995,132.341Z" transform="translate(-317.654 -126.834)" fill="#ffc619"/>
      <path id="Path_3200" data-name="Path 3200" d="M359.77,210.09a.416.416,0,0,0-.416.416v1.163a.416.416,0,1,0,.832,0v-1.163A.416.416,0,0,0,359.77,210.09Z" transform="translate(-344.429 -201.348)" fill="#ffc619"/>
      <path id="Path_3201" data-name="Path 3201" d="M359.77,291.839a.416.416,0,0,0-.416.416v1.163a.416.416,0,1,0,.832,0v-1.163A.416.416,0,0,0,359.77,291.839Z" transform="translate(-344.429 -279.695)" fill="#ffc619"/>
      <path id="Path_3202" data-name="Path 3202" d="M180.674,492.1a.416.416,0,1,0,.157.5A.419.419,0,0,0,180.674,492.1Z" transform="translate(-172.565 -471.561)" fill="#ffc619"/>
    </g>
  </g>
</svg>
